<svg width="89" height="97" viewBox="0 0 89 97" fill="none" xmlns="http://www.w3.org/2000/svg">
<g filter="url(#filter0_i_1_24)">
<path d="M27.2609 21.7964C32.0876 21.9849 37.1155 22.0791 42.3444 22.0791H47.3004C49.3978 22.0477 53.0178 22.032 58.1606 22.032C63.332 22.0006 67.7422 21.9692 71.391 21.9377C75.0685 21.9063 78.7172 21.8278 82.3373 21.7021C82.5671 23.8697 83.0555 26.1315 83.8025 28.4875C84.5495 30.8121 85.2678 32.7284 85.9573 34.2362C86.6468 35.7127 87.5519 37.5033 88.6723 39.608C88.4425 40.142 87.9397 40.5661 87.164 40.8802C86.1297 38.7441 84.8799 36.8436 83.4147 35.1786C81.9494 33.5137 80.0963 31.943 77.8553 30.4666C75.6431 28.9901 72.8706 27.7807 69.5378 26.8383C66.2338 25.8959 62.4701 25.2676 58.2468 24.9535H47.3004C46.9269 38.5242 46.7402 48.7808 46.7402 55.7232H59.0225C59.7407 55.7232 60.4159 55.6604 61.048 55.5347C61.68 55.3777 62.269 55.1264 62.8149 54.7808C63.3895 54.4353 63.8779 54.1054 64.2802 53.7913C64.7111 53.4457 65.1564 52.9431 65.6161 52.2834C66.1045 51.5923 66.4924 51.0269 66.7797 50.5871C67.067 50.1473 67.4262 49.4562 67.8571 48.5138C68.2881 47.5399 68.6185 46.8017 68.8483 46.2991C69.0781 45.7965 69.4229 44.964 69.8826 43.8017C70.371 42.6394 70.7302 41.7912 70.96 41.2572C71.9656 41.7284 72.5114 42.1211 72.5976 42.4352C70.9025 47.2729 70.055 52.1892 70.055 57.184C70.055 62.1473 70.9025 67.0793 72.5976 71.9798C72.3965 72.4196 71.8506 72.828 70.96 73.205C69.2074 68.5871 67.8715 65.4929 66.9521 63.9222C64.826 60.4353 62.1828 58.6761 59.0225 58.6447H46.7402C46.7402 65.3987 46.8982 74.0217 47.2142 84.5139C47.243 85.3307 47.5734 86.0375 48.2054 86.6343C48.8375 87.1998 49.7425 87.6396 50.9205 87.9537C52.1272 88.2678 53.1327 88.5034 53.9372 88.6605C54.7704 88.7862 55.8478 88.9118 57.1694 89.0375C57.2843 89.6658 57.3417 90.0898 57.3417 90.3097C57.3417 90.561 57.2843 90.8752 57.1694 91.2522C52.2852 91.0637 47.2861 90.9694 42.172 90.9694C37.0006 90.9694 32.0014 91.0637 27.1747 91.2522C27.0598 90.8752 27.0023 90.561 27.0023 90.3097C27.0023 90.0898 27.0598 89.6658 27.1747 89.0375C28.0366 88.9432 28.7262 88.8647 29.2433 88.8019C29.7605 88.7391 30.4644 88.6291 31.355 88.472C32.2744 88.315 33.007 88.1422 33.5529 87.9537C34.1275 87.7338 34.7165 87.4668 35.3198 87.1527C35.9232 86.8385 36.3685 86.4616 36.6558 86.0218C36.9718 85.582 37.1298 85.0794 37.1298 84.5139C37.4746 74.6814 37.647 64.7704 37.647 54.7808C37.647 44.6028 37.5033 35.8226 37.216 28.4404C37.1873 27.6236 36.8569 26.9325 36.2248 26.3671C35.6215 25.8016 34.7021 25.3618 33.4667 25.0477C32.2313 24.7336 31.2401 24.5294 30.4931 24.4351C29.7461 24.3095 28.6687 24.1681 27.2609 24.0111C27.146 23.4456 27.0885 23.0529 27.0885 22.833C27.0885 22.6446 27.146 22.299 27.2609 21.7964Z" fill="#98BCEC"/>
<path d="M47.6875 0.0625C50.9792 0.0625 54.25 0.291667 57.5 0.75C60.7917 1.16667 63.9375 1.6875 66.9375 2.3125C69.9792 2.89583 72.8542 3.47917 75.5625 4.0625C78.2708 4.64583 80.7083 5.0625 82.875 5.3125C82.375 6.8125 82.125 9.45833 82.125 13.25C82.125 20.625 83.2292 27.0208 85.4375 32.4375C85.1875 33.1875 84.4167 33.6458 83.125 33.8125L80.4375 28.0625C79.1042 25.1875 77.5 22.3542 75.625 19.5625C73.75 16.7292 71.5 14.2083 68.875 12C66.25 9.75 63.1875 7.9375 59.6875 6.5625C56.2292 5.1875 52.2292 4.5 47.6875 4.5C43.7708 4.5 40.2917 5.14583 37.25 6.4375C34.2083 7.72917 31.5417 9.47917 29.25 11.6875C26.9583 13.8542 25.0208 16.3958 23.4375 19.3125C21.8542 22.1875 20.5625 25.25 19.5625 28.5C18.6042 31.75 17.8958 35.0833 17.4375 38.5C17.0208 41.9167 16.8125 45.2292 16.8125 48.4375C16.8125 53.7708 17.5 58.875 18.875 63.75C20.2917 68.625 22.4792 72.9375 25.4375 76.6875C28.3958 80.3958 32.1458 83.3542 36.6875 85.5625C41.2708 87.7708 46.7292 88.875 53.0625 88.875C65.1875 88.875 74.3542 85.0833 80.5625 77.5C81.2292 77.5 81.7708 77.6875 82.1875 78.0625C82.6458 78.4375 82.875 78.8958 82.875 79.4375C80.875 82.3958 78.4375 84.9583 75.5625 87.125C72.7292 89.2917 69.7083 91.0833 66.5 92.5C63.2917 93.875 60.0417 94.8958 56.75 95.5625C53.5 96.2292 50.4792 96.5625 47.6875 96.5625C44.6458 96.5625 41.3542 96.2292 37.8125 95.5625C34.3125 94.9375 30.7917 93.875 27.25 92.375C23.75 90.875 20.375 88.9167 17.125 86.5C13.9167 84.0417 11.0625 81.0417 8.5625 77.5C6.0625 73.9167 4.0625 69.7292 2.5625 64.9375C1.0625 60.1458 0.3125 54.6458 0.3125 48.4375C0.3125 42.1875 1.0625 36.6667 2.5625 31.875C4.0625 27.0417 6.0625 22.8333 8.5625 19.25C11.1042 15.6667 14 12.6667 17.25 10.25C20.5417 7.79167 23.9375 5.8125 27.4375 4.3125C30.9375 2.77083 34.4375 1.6875 37.9375 1.0625C41.4375 0.395833 44.6875 0.0625 47.6875 0.0625Z" fill="#98BCEC"/>
</g>
<defs>
<filter id="filter0_i_1_24" x="0.3125" y="0.0625" width="88.3598" height="97.5" filterUnits="userSpaceOnUse" color-interpolation-filters="sRGB">
<feFlood flood-opacity="0" result="BackgroundImageFix"/>
<feBlend mode="normal" in="SourceGraphic" in2="BackgroundImageFix" result="shape"/>
<feColorMatrix in="SourceAlpha" type="matrix" values="0 0 0 0 0 0 0 0 0 0 0 0 0 0 0 0 0 0 127 0" result="hardAlpha"/>
<feOffset dy="1"/>
<feGaussianBlur stdDeviation="4"/>
<feComposite in2="hardAlpha" operator="arithmetic" k2="-1" k3="1"/>
<feColorMatrix type="matrix" values="0 0 0 0 0 0 0 0 0 0.411765 0 0 0 0 0.537255 0 0 0 0.25 0"/>
<feBlend mode="normal" in2="shape" result="effect1_innerShadow_1_24"/>
</filter>
</defs>
</svg>
